<svg width="40" height="40" viewBox="0 0 40 40" fill="none" xmlns="http://www.w3.org/2000/svg">
<path d="M20 40C31.0457 40 40 31.0457 40 20C40 8.95432 31.0457 0 20 0C8.95432 0 0 8.95432 0 20C0 31.0457 8.95432 40 20 40Z" fill="#BEC9F8"/>
<path d="M25.8676 19.3429H31.4338C31.3335 18.1688 31.0508 17.0175 30.5962 15.9303C29.9246 14.3169 28.889 12.8806 27.5703 11.7337C26.2516 10.5869 24.6857 9.76045 22.9948 9.31909V7.27454H21.1016V14.5802C22.2936 14.7773 23.3941 15.3424 24.2489 16.1963C25.1052 17.0494 25.6715 18.1502 25.8676 19.3429ZM22.9948 11.015C24.5116 11.4809 25.8916 12.3108 27.014 13.4324C28.1364 14.554 28.9676 15.9332 29.4345 17.4496H26.9206C26.9201 17.4446 26.9185 17.4397 26.916 17.4355C26.1725 15.6676 24.7642 14.2627 22.9945 13.5236L22.9948 11.015Z" fill="black"/>
<path d="M17.0782 9.35774C16.6212 9.4855 16.1722 9.64086 15.734 9.82294C13.6793 10.6924 11.9261 12.1475 10.693 14.0068C9.45997 15.8661 8.80149 18.0473 8.80005 20.2785C8.79781 22.7558 9.60549 25.1661 11.1 27.1421C12.5944 29.118 14.6937 30.5513 17.0782 31.2237V33.0672H18.9715V25.9589C17.6687 25.6874 16.499 24.9756 15.6595 23.943C14.8199 22.9105 14.3615 21.6203 14.3615 20.2894C14.3612 18.9584 14.8194 17.6678 15.6589 16.6349C16.4986 15.6021 17.6684 14.89 18.9715 14.6185V7.27271H17.0782V9.35774ZM17.0782 13.6293C15.8076 14.2167 14.7316 15.1554 13.9773 16.3346C13.2229 17.5138 12.8216 18.8842 12.8209 20.2841C12.8196 21.6855 13.22 23.058 13.9745 24.2391C14.7289 25.4201 15.8061 26.3602 17.0782 26.9481V29.4946C15.1485 28.8482 13.4707 27.6117 12.2818 25.9599C11.0929 24.3081 10.4532 22.3245 10.4528 20.2894C10.4529 18.2539 11.0927 16.2699 12.2817 14.6178C13.4708 12.9657 15.149 11.7291 17.0793 11.0827L17.0782 13.6293Z" fill="black"/>
<path d="M29.7857 21.4716H25.8242C25.5924 22.5823 25.0396 23.6005 24.2343 24.3999C23.429 25.1992 22.4067 25.7444 21.2943 25.968H21.1003V33.068H22.9935V31.2904C23.5337 31.1511 24.0629 30.9723 24.5769 30.7556C26.4413 29.9591 28.0586 28.678 29.2609 27.0455C30.4631 25.4129 31.2066 23.4884 31.4141 21.4716H29.7857ZM22.9939 29.5698V27.0566C22.9985 27.054 23.0055 27.052 23.0105 27.0494C24.6948 26.34 26.0523 25.0253 26.8159 23.3648H29.3599C28.8679 24.8304 28.0339 26.1576 26.9268 27.2366C25.8197 28.3157 24.4715 29.1155 22.9939 29.5698Z" fill="black"/>
<defs>
<rect width="40" height="40" fill="white"/>
</defs>
</svg>
