<svg width="32" height="32" fill="none" xmlns="http://www.w3.org/2000/svg">
    <path d="M16 32c8.837 0 16-7.163 16-16S24.837 0 16 0 0 7.163 0 16s7.163 16 16 16z" fill="url(#a)"/>
    <path d="M16 31.75c8.698 0 15.75-7.052 15.75-15.75S24.698.25 16 .25.25 7.302.25 16 7.302 31.75 16 31.75z" stroke="#fff" stroke-width=".5"/>
    <path d="M8.793 9.541c.117-.15.241-.296.366-.441.006-.007.018-.009.024-.016.011-.014.03-.023.04-.037l.012-.014c.086-.082.178-.172.285-.25a4.228 4.228 0 0 1 1.18-.66c1.321-.474 2.792-.182 3.946.932 1.61 1.543 1.465 4.03.18 5.683-1.625 2.464-4.417 5.902-.551 8.98.695.555 1.21 1.011 3.4 1.658-1.431.27-2.76.186-4.237-.2-1.046-.604-2.69-1.895-3.248-3.64-.846-2.646 1.487-6.601 2.615-8.124 1.548-2.109-.957-4.39-2.801-1.843-.965 1.328-2.65 5.086-2.065 7.873.342 1.58.8 2.732 2.61 4.315a8.57 8.57 0 0 1-.977-.69c-4.209-4.007-3.72-10.204-.78-13.526z" fill="url(#b)"/>
    <path d="M23.117 22.192c-.117.15-.242.296-.366.441-.006.007-.018.009-.024.015-.011.015-.03.024-.04.038l-.012.014c-.086.082-.178.171-.285.25a4.229 4.229 0 0 1-1.18.66c-1.321.474-2.792.182-3.945-.932-1.61-1.543-1.466-4.03-.181-5.683 1.625-2.464 4.417-5.902.551-8.981-.695-.554-1.21-1.01-3.4-1.657 1.431-.27 2.76-.187 4.237.2 1.046.603 2.69 1.895 3.248 3.64.846 2.645-1.487 6.6-2.615 8.123-1.548 2.11.957 4.391 2.801 1.843.965-1.327 2.65-5.085 2.065-7.872-.343-1.58-.8-2.733-2.61-4.315.335.202.661.432.977.69 4.208 4.007 3.72 10.204.78 13.526z" fill="url(#c)"/>
    <defs>
        <linearGradient id="a" x1="16" y1="0" x2="16" y2="32" gradientUnits="userSpaceOnUse">
            <stop stop-color="#174C6A"/>
            <stop offset="1" stop-color="#0C131A"/>
        </linearGradient>
        <linearGradient id="b" x1="6.5" y1="15.867" x2="25.41" y2="15.867" gradientUnits="userSpaceOnUse">
            <stop stop-color="#0082FA"/>
            <stop offset="1" stop-color="#00F2FE"/>
        </linearGradient>
        <linearGradient id="c" x1="6.5" y1="15.866" x2="25.41" y2="15.866" gradientUnits="userSpaceOnUse">
            <stop stop-color="#0082FA"/>
            <stop offset="1" stop-color="#00F2FE"/>
        </linearGradient>
    </defs>
</svg>
