<svg width="40" height="40" viewBox="0 0 40 40" fill="none" xmlns="http://www.w3.org/2000/svg">
<path d="M20 40C31.0457 40 40 31.0457 40 20C40 8.9543 31.0457 0 20 0C8.9543 0 0 8.9543 0 20C0 31.0457 8.9543 40 20 40Z" fill="#E50571"/>
<path d="M20.0411 2.5515C17.8822 2.5515 16.1317 10.3819 16.1317 20.0413C16.1317 29.7006 17.8822 37.531 20.0411 37.531C22.2 37.531 23.9505 29.7006 23.9505 20.0413C23.9505 10.3819 22.2 2.5515 20.0411 2.5515ZM20.311 36.544C20.0641 36.8733 19.8173 36.6262 19.8173 36.6262C18.823 35.4742 18.3259 33.3341 18.3259 33.3341C16.5869 27.7374 17.0008 15.7209 17.0008 15.7209C17.8181 6.1811 19.3048 3.9275 19.8107 3.42718C19.8624 3.37612 19.9304 3.34491 20.0028 3.33906C20.0752 3.33321 20.1473 3.35308 20.2065 3.39518C20.9406 3.91534 21.5563 6.0907 21.5563 6.0907C23.3744 12.8397 23.2097 19.1771 23.2097 19.1771C23.3744 24.6915 22.2987 30.8643 22.2987 30.8643C21.4707 35.5555 20.311 36.544 20.311 36.544Z" fill="white"/>
<path d="M35.2115 11.3375C34.1366 9.4642 26.4741 11.8428 18.0915 16.6495C9.70896 21.4562 3.796 26.8717 4.87008 28.7442C5.94416 30.6167 13.6075 28.2389 21.9901 23.4322C30.3726 18.6255 36.2856 13.21 35.2115 11.3375ZM5.86176 28.4872C5.45024 28.4354 5.5432 28.0972 5.5432 28.0972C6.048 26.6618 7.6544 25.1655 7.6544 25.1655C11.6453 20.8717 22.275 15.2511 22.275 15.2511C30.9557 11.2124 33.652 11.3828 34.336 11.5711C34.4062 11.5907 34.4672 11.6345 34.5082 11.6948C34.5492 11.755 34.5676 11.8279 34.56 11.9004C34.4778 12.7964 32.8933 14.4124 32.8933 14.4124C27.9474 19.3498 22.368 22.3613 22.368 22.3613C17.6667 25.2493 11.7771 27.3868 11.7771 27.3868C7.29568 29.0016 5.86192 28.4872 5.86192 28.4872H5.86176Z" fill="white"/>
<path d="M35.1736 28.8066C36.2568 26.9382 30.3587 21.4979 22.0056 16.655C13.6525 11.8121 5.9909 9.40415 4.90866 11.2757C3.82642 13.1472 9.72354 18.5843 18.0815 23.4272C26.4394 28.2701 34.0914 30.6782 35.1736 28.8066ZM5.62642 11.9976C5.46642 11.6182 5.80418 11.5269 5.80418 11.5269C7.29954 11.2445 9.40002 11.888 9.40002 11.888C15.1144 13.1893 25.304 19.572 25.304 19.572C33.1493 25.0618 34.3525 27.4798 34.5328 28.1662C34.5512 28.2366 34.544 28.3113 34.5127 28.3769C34.4814 28.4426 34.4279 28.4951 34.3616 28.5251C33.5435 28.8997 31.3525 28.3416 31.3525 28.3416C24.5994 26.5309 19.1986 23.2133 19.1986 23.2133C14.3459 20.596 9.54754 16.5688 9.54754 16.5688C5.90146 13.4989 5.62754 12.0017 5.62754 12.0017L5.62642 11.9976Z" fill="white"/>
<path d="M20 22.0576C21.1364 22.0576 22.0576 21.1364 22.0576 20C22.0576 18.8636 21.1364 17.9424 20 17.9424C18.8636 17.9424 17.9424 18.8636 17.9424 20C17.9424 21.1364 18.8636 22.0576 20 22.0576Z" fill="white"/>
<path d="M28.4361 13.3333C29.0953 13.3333 29.6296 12.7805 29.6296 12.0987C29.6296 11.4169 29.0953 10.8642 28.4361 10.8642C27.777 10.8642 27.2427 11.4169 27.2427 12.0987C27.2427 12.7805 27.777 13.3333 28.4361 13.3333Z" fill="white"/>
<path d="M8.84771 17.5309C9.50683 17.5309 10.0411 16.9782 10.0411 16.2963C10.0411 15.6145 9.50683 15.0618 8.84771 15.0618C8.18859 15.0618 7.65427 15.6145 7.65427 16.2963C7.65427 16.9782 8.18859 17.5309 8.84771 17.5309Z" fill="white"/>
<path d="M17.572 32.6749C18.2311 32.6749 18.7655 32.1221 18.7655 31.4403C18.7655 30.7585 18.2311 30.2058 17.572 30.2058C16.9129 30.2058 16.3786 30.7585 16.3786 31.4403C16.3786 32.1221 16.9129 32.6749 17.572 32.6749Z" fill="white"/>
<defs>
<rect width="40" height="40" fill="white"/>
</defs>
</svg>
