<svg width="40" height="40" viewBox="0 0 40 40" fill="none" xmlns="http://www.w3.org/2000/svg">
<mask id="mask0_1_2" style="mask-type:alpha" maskUnits="userSpaceOnUse" x="0" y="0" width="40" height="40">
<path d="M20 40C31.0457 40 40 31.0457 40 20C40 8.95432 31.0457 0 20 0C8.95432 0 0 8.95432 0 20C0 31.0457 8.95432 40 20 40Z" fill="#D9D9D9"/>
</mask>
<g mask="url(#mask0_1_2)">
<path d="M40 0H0V40H40V0Z" fill="#E50571"/>
<path fill-rule="evenodd" clip-rule="evenodd" d="M28.4737 9.28505C29.8841 10.3096 30.6677 11.23 30.9114 12.1503C31.0681 12.6713 30.9289 13.2965 30.5807 13.7654C30.2323 14.2342 29.6753 14.4946 29.0309 14.4946C28.7873 14.4946 28.5256 14.4574 28.2821 14.3879C28.3558 14.1906 28.4373 13.9865 28.5257 13.7824C28.5954 13.7998 28.6826 13.7998 28.7696 13.7998C28.9784 13.7998 29.2222 13.765 29.4139 13.6087C29.553 13.5046 29.7099 13.3135 29.6925 12.9662C29.6925 12.6362 29.4313 12.2194 28.8915 11.7158C28.5085 11.3512 27.9861 10.9518 27.4638 10.5871C25.9662 9.59729 24.9216 9.31945 24.4514 9.78833C24.1381 10.1009 24.1729 10.483 24.2773 10.7608C24.0593 10.9035 23.8546 11.0302 23.6673 11.1421C23.2158 10.4656 23.1925 9.64969 23.581 8.92041C23.8247 8.45153 24.2078 8.13897 24.6431 8.05209C24.8172 8.01737 24.9913 8.00001 25.1829 8.00001C26.1405 8.00001 27.3419 8.46889 28.4737 9.28505ZM23.5393 11.8126C24.0963 11.5174 24.9041 11.0038 25.8269 10.2746C26.1753 10.4134 26.628 10.6566 27.1852 11.0213C27.8468 11.4554 28.4213 11.9416 28.7871 12.3237C28.1786 13.1211 27.7784 14.2128 27.5346 14.9766C28.8549 16.7037 29.6402 18.8594 29.6402 21.1978C29.6402 26.8762 25.0261 31.4781 19.3325 31.4781C13.6388 31.4781 9.02463 26.8762 9.02463 21.1978C9.02463 15.5192 13.6388 10.9174 19.3325 10.9174C20.8275 10.9174 22.2502 11.2366 23.5348 11.8107L23.5393 11.8126ZM19.3325 30.905C13.9521 30.905 9.59919 26.5637 9.59919 21.1978C9.59919 15.8318 13.9521 11.4904 19.3325 11.4904C24.7127 11.4904 29.0657 15.8318 29.0657 21.1978C29.0657 26.5637 24.6953 30.905 19.3325 30.905ZM29.1875 12.9835C29.1875 12.9314 29.1701 12.8446 29.1179 12.7578C28.996 12.9314 28.8741 13.1051 28.7696 13.3135C28.8915 13.3135 29.0308 13.2788 29.1003 13.2266C29.1353 13.1919 29.1875 13.1398 29.1875 12.9835ZM25.2351 10.1182C25.0087 10.0835 24.8693 10.1182 24.8172 10.1703C24.7127 10.2572 24.6953 10.3787 24.7127 10.5002C24.8868 10.3787 25.0609 10.2572 25.2351 10.1182ZM24.2598 19.3222C26.7149 19.5304 28.5779 20.0511 28.5779 21.1104C28.5779 26.1984 24.4339 30.3315 19.3323 30.3315C14.2777 30.3315 10.1461 26.2744 10.0702 21.2511C10.0695 21.2332 10.0691 21.2154 10.0691 21.1976C10.0691 21.1889 10.0692 21.1802 10.0693 21.1714C10.0692 21.1511 10.0692 21.1308 10.0692 21.1104H10.0716C10.1379 19.949 11.5588 19.989 14.0913 20.2772C15.2579 20.4162 16.8598 20.503 18.6358 19.9821C20.6904 19.3569 22.4838 19.1831 24.2598 19.3222ZM18.8363 20.6532L18.833 20.6543C16.9273 21.2132 15.2182 21.1167 14.0103 20.973C12.6893 20.8228 11.7868 20.757 11.2197 20.8492C10.9454 20.8939 10.8471 20.9621 10.8187 20.9894L10.8178 20.9902C10.8091 20.9982 10.7697 21.0342 10.7697 21.1976C10.7697 21.408 10.8813 21.7234 11.2393 22.0986C11.5916 22.468 12.14 22.8466 12.8829 23.165C14.3651 23.8006 16.5405 24.1612 19.1991 23.7861C21.1721 23.5049 22.3963 23.0264 23.5925 22.559C24.045 22.3821 24.4933 22.2068 24.9769 22.0443L24.9789 22.0437L24.981 22.043C25.4576 21.8861 25.9146 21.7711 26.3179 21.6741C26.3904 21.6566 26.4607 21.6398 26.5285 21.6237L26.5341 21.6223L26.5357 21.6219C26.8523 21.5464 27.1182 21.483 27.3497 21.4129C27.6398 21.3249 27.7847 21.2513 27.8511 21.1984C27.8544 21.1957 27.8573 21.1932 27.8598 21.1911C27.8555 21.1243 27.781 20.8782 27.0685 20.5902C26.3949 20.3181 25.4003 20.1221 24.2028 20.0203C22.5179 19.8889 20.8129 20.0519 18.8397 20.6522L18.8363 20.6532ZM22.3621 16.8218C23.2277 16.8218 23.929 16.122 23.929 15.2588C23.929 14.3957 23.2277 13.6959 22.3621 13.6959C21.4967 13.6959 20.7949 14.3957 20.7949 15.2588C20.7949 16.122 21.4967 16.8218 22.3621 16.8218ZM25.5833 17.3259C25.5833 17.6904 25.2869 17.9859 24.9216 17.9859C24.5561 17.9859 24.26 17.6904 24.26 17.3259C24.26 16.9616 24.5561 16.6661 24.9216 16.6661C25.2869 16.6661 25.5833 16.9616 25.5833 17.3259Z" fill="white"/>
</g>
<defs>
<rect width="40" height="40" fill="white"/>
</defs>
</svg>
