<svg xmlns="http://www.w3.org/2000/svg" width="48" height="48" viewBox="0 0 48 48" fill="none">
    <path d="M12 24.0997C12 17.4199 17.3699 12 23.9997 12C30.6295 12 35.9994 17.4199 35.9994 24.0997V35.9894C35.9994 29.3695 30.6195 23.9997 23.9997 23.9997C17.3799 23.9997 12 29.3695 12 35.9994V24.0997Z" fill="white"/>
    <circle cx="24" cy="24" r="23.25" stroke="white" stroke-width="1.5" stroke-linecap="round" stroke-linejoin="round"/>
    <path d="M16.231 38.62C15.535 38.62 14.987 38.444 14.587 38.092C14.187 37.732 13.987 37.248 13.987 36.64C13.987 36.024 14.187 35.54 14.587 35.188C14.987 34.836 15.527 34.66 16.207 34.66H18.247V34C18.247 33.592 18.123 33.28 17.875 33.064C17.635 32.84 17.291 32.728 16.843 32.728C16.451 32.728 16.123 32.812 15.859 32.98C15.595 33.14 15.443 33.36 15.403 33.64H14.323C14.395 33.072 14.663 32.62 15.127 32.284C15.591 31.948 16.171 31.78 16.867 31.78C17.627 31.78 18.227 31.976 18.667 32.368C19.107 32.76 19.327 33.292 19.327 33.964V38.5H18.271V37.24H18.091L18.271 37.06C18.271 37.54 18.083 37.92 17.707 38.2C17.339 38.48 16.847 38.62 16.231 38.62ZM16.495 37.768C17.007 37.768 17.427 37.64 17.755 37.384C18.083 37.128 18.247 36.8 18.247 36.4V35.464H16.231C15.871 35.464 15.587 35.564 15.379 35.764C15.171 35.964 15.067 36.236 15.067 36.58C15.067 36.948 15.191 37.24 15.439 37.456C15.695 37.664 16.047 37.768 16.495 37.768ZM21.1943 38.5V31.9H22.1423V32.692H22.3583L22.1903 32.98C22.1903 32.612 22.2863 32.32 22.4783 32.104C22.6783 31.888 22.9463 31.78 23.2823 31.78C23.6503 31.78 23.9343 31.916 24.1343 32.188C24.3343 32.46 24.4343 32.844 24.4343 33.34L24.1103 32.692H24.6143L24.3863 32.98C24.3863 32.612 24.4863 32.32 24.6863 32.104C24.8943 31.888 25.1663 31.78 25.5023 31.78C25.9183 31.78 26.2383 31.936 26.4623 32.248C26.6943 32.56 26.8103 32.972 26.8103 33.484V38.5H25.8143V33.472C25.8143 33.2 25.7543 32.988 25.6343 32.836C25.5223 32.684 25.3543 32.608 25.1303 32.608C24.9143 32.608 24.7423 32.684 24.6143 32.836C24.4943 32.98 24.4343 33.188 24.4343 33.46V38.5H23.5703V33.472C23.5703 33.192 23.5063 32.98 23.3783 32.836C23.2583 32.684 23.0863 32.608 22.8623 32.608C22.6383 32.608 22.4703 32.684 22.3583 32.836C22.2463 32.98 22.1903 33.188 22.1903 33.46V38.5H21.1943ZM28.7017 40.66V31.9H29.7817V33.16H29.9977L29.7817 33.412C29.7817 32.908 29.9457 32.512 30.2737 32.224C30.6097 31.928 31.0497 31.78 31.5937 31.78C32.2577 31.78 32.7857 32 33.1777 32.44C33.5777 32.872 33.7777 33.468 33.7777 34.228V36.16C33.7777 36.664 33.6857 37.1 33.5017 37.468C33.3257 37.836 33.0737 38.12 32.7457 38.32C32.4257 38.52 32.0417 38.62 31.5937 38.62C31.0577 38.62 30.6217 38.472 30.2857 38.176C29.9497 37.88 29.7817 37.484 29.7817 36.988L29.9977 37.24H29.7577L29.7817 38.74V40.66H28.7017ZM31.2337 37.684C31.6897 37.684 32.0457 37.548 32.3017 37.276C32.5657 37.004 32.6977 36.612 32.6977 36.1V34.3C32.6977 33.788 32.5657 33.396 32.3017 33.124C32.0457 32.852 31.6897 32.716 31.2337 32.716C30.7937 32.716 30.4417 32.856 30.1777 33.136C29.9137 33.416 29.7817 33.804 29.7817 34.3V36.1C29.7817 36.596 29.9137 36.984 30.1777 37.264C30.4417 37.544 30.7937 37.684 31.2337 37.684Z" fill="white"/>
</svg>