<svg xmlns="http://www.w3.org/2000/svg" width="48" height="48" viewBox="0 0 48 48" fill="none">
    <path d="M12 24.0997C12 17.4199 17.3699 12 23.9997 12C30.6295 12 35.9994 17.4199 35.9994 24.0997V35.9894C35.9994 29.3695 30.6195 23.9997 23.9997 23.9997C17.3799 23.9997 12 29.3695 12 35.9994V24.0997Z" fill="white"/>
    <circle cx="24" cy="24" r="23.25" stroke="white" stroke-width="1.5" stroke-linecap="round" stroke-linejoin="round"/>
    <path d="M24.0545 37.13C23.4305 37.13 22.8932 37.026 22.4425 36.818C22.0005 36.61 21.6582 36.311 21.4155 35.921C21.1729 35.531 21.0472 35.0673 21.0385 34.53H22.2085C22.2085 35.0067 22.3689 35.3837 22.6895 35.661C23.0189 35.9383 23.4739 36.077 24.0545 36.077C24.6005 36.077 25.0252 35.9427 25.3285 35.674C25.6405 35.4053 25.7965 35.0327 25.7965 34.556C25.7965 34.1747 25.6925 33.841 25.4845 33.555C25.2852 33.269 24.9949 33.0697 24.6135 32.957L23.3265 32.554C22.6765 32.3547 22.1739 32.021 21.8185 31.553C21.4719 31.085 21.2985 30.5347 21.2985 29.902C21.2985 29.3907 21.4112 28.9487 21.6365 28.576C21.8705 28.1947 22.1955 27.9 22.6115 27.692C23.0275 27.4753 23.5172 27.367 24.0805 27.367C24.9125 27.367 25.5799 27.601 26.0825 28.069C26.5852 28.5283 26.8409 29.1437 26.8495 29.915H25.6795C25.6795 29.447 25.5365 29.083 25.2505 28.823C24.9732 28.5543 24.5789 28.42 24.0675 28.42C23.5649 28.42 23.1705 28.5413 22.8845 28.784C22.6072 29.0267 22.4685 29.3647 22.4685 29.798C22.4685 30.188 22.5725 30.526 22.7805 30.812C22.9885 31.098 23.2875 31.3017 23.6775 31.423L24.9775 31.839C25.6102 32.0383 26.0999 32.3763 26.4465 32.853C26.7932 33.3297 26.9665 33.8887 26.9665 34.53C26.9665 35.05 26.8452 35.505 26.6025 35.895C26.3599 36.285 26.0175 36.5883 25.5755 36.805C25.1422 37.0217 24.6352 37.13 24.0545 37.13Z" fill="white"/>
</svg>