<svg xmlns="http://www.w3.org/2000/svg" width="48" height="48" viewBox="0 0 48 48" fill="none">
    <path fill-rule="evenodd" clip-rule="evenodd" d="M24 46.5C36.4264 46.5 46.5 36.4264 46.5 24C46.5 11.5736 36.4264 1.5 24 1.5C11.5736 1.5 1.5 11.5736 1.5 24C1.5 36.4264 11.5736 46.5 24 46.5ZM24 48C37.2548 48 48 37.2548 48 24C48 10.7452 37.2548 0 24 0C10.7452 0 0 10.7452 0 24C0 37.2548 10.7452 48 24 48Z" fill="url(#paint0_linear_316_9554)"/>
    <g clip-path="url(#clip0_316_9554)">
    <path d="M29.9976 14H17.9976L23.9999 24.3965L29.9976 14Z" fill="url(#paint1_linear_316_9554)"/>
    <path d="M29.9976 14L24 24.3965L29.9976 34.7884L36 24.3965L29.9976 14Z" fill="url(#paint2_linear_316_9554)"/>
    <path d="M17.9976 14L12 24.3965L17.9976 34.7884L24 24.3965L17.9976 14Z" fill="url(#paint3_linear_316_9554)"/>
    <path d="M23.9999 24.3965L17.9976 34.7883H29.9976L23.9999 24.3965Z" fill="url(#paint4_linear_316_9554)"/>
    </g>
    <defs>
    <linearGradient id="paint0_linear_316_9554" x1="48" y1="24" x2="0" y2="24" gradientUnits="userSpaceOnUse">
    <stop stop-color="#073DC8"/>
    <stop offset="1" stop-color="#0BF6CC"/>
    </linearGradient>
    <linearGradient id="paint1_linear_316_9554" x1="23.999" y1="24.5578" x2="23.999" y2="13.5222" gradientUnits="userSpaceOnUse">
    <stop offset="0.345821" stop-color="#56D3FF"/>
    <stop offset="1" stop-color="#28AFE9"/>
    </linearGradient>
    <linearGradient id="paint2_linear_316_9554" x1="23.9863" y1="24.3949" x2="36.1594" y2="24.3949" gradientUnits="userSpaceOnUse">
    <stop stop-color="#74D6FF"/>
    <stop offset="1" stop-color="#76A1FF"/>
    </linearGradient>
    <linearGradient id="paint3_linear_316_9554" x1="11.9985" y1="24.3949" x2="23.999" y2="24.3949" gradientUnits="userSpaceOnUse">
    <stop stop-color="#00BA9B"/>
    <stop offset="1" stop-color="#0086A8"/>
    </linearGradient>
    <linearGradient id="paint4_linear_316_9554" x1="23.999" y1="23.874" x2="23.999" y2="34.8139" gradientUnits="userSpaceOnUse">
    <stop stop-color="#74C5EE"/>
    <stop offset="0.32" stop-color="#73C2EF"/>
    <stop offset="0.53" stop-color="#6EB9F1"/>
    <stop offset="0.72" stop-color="#66AAF5"/>
    <stop offset="0.88" stop-color="#5A95FA"/>
    <stop offset="1" stop-color="#4F80FF"/>
    </linearGradient>
    <clipPath id="clip0_316_9554">
    <rect width="24" height="20.788" fill="white" transform="translate(12 14)"/>
    </clipPath>
    </defs>
</svg>