<svg xmlns="http://www.w3.org/2000/svg" width="48" height="48" fill="none" version="1.1" viewBox="0 0 48 48">
  <g transform="translate(-4)" clip-path="url(#clip0_173_12496)" clip-rule="evenodd" fill-rule="evenodd" filter="url(#filter0_d_173_12496)">
    <path d="m28 46.5c-12.426 0-22.5-10.074-22.5-22.5s10.074-22.5 22.5-22.5 22.5 10.074 22.5 22.5-10.074 22.5-22.5 22.5zm0 1.5c-13.255 0-24-10.745-24-24s10.745-24 24-24 24 10.745 24 24-10.745 24-24 24z" fill="url(#paint0_linear_173_12496)"/>
    <path d="m39.925 9s-7.0117 4.0712-9.3004 8.7067c-0.8319-0.2286-1.7062-0.353-2.5976-0.353-0.9082 0-1.7984 0.1291-2.6443 0.3659-2.2821-4.6408-9.3068-8.7195-9.3068-8.7195-0.2485 2.6455-0.0162 8.9952 2.7557 14.306 0.1604-0.2751 0.315-0.5323 0.4695-0.7788-0.9217-1.904-1.1906-3.1312-1.2131-5.4723 0.5314 2.1249 0.8416 3.3211 1.8135 4.5704 0.5976-0.8432 1.2925-1.6666 2.3664-2.8248l-1e-3 -0.0306c-0.357-2.1664-0.9048-3.4709-2.0478-5.8408 2.2345 2.6206 3.302 4.7467 3.27 6.6414l0.0183-0.0177c-0.0143 1.0734-0.3808 2.0723-1.0878 3.0446l-0.1347-1.019-0.6098 0.3728c0.0757-0.2299 0.1516-0.4214 0.2228-0.6014 0.0769-0.1947 0.1486-0.3758 0.2092-0.5774-0.0079 0.0067-0.016 0.0133-0.024 0.02 2e-3 -0.0066 0.0041-0.0133 0.0061-0.02-0.8763 0.7278-1.6642 1.5592-2.9882 3.0322l0.0176 0.0311 0.0172-0.0168c-0.0631 0.3417-0.096 0.689-0.096 1.0403 0 0.5664 0.0855 1.2761 0.2456 2.0768-0.251 0.1454-0.4985 0.3444-0.6594 0.6571 0.3394 0.0058 0.5735 0.034 0.8323 0.1233 0.0092 0.0379 0.0184 0.0759 0.0278 0.1143-0.919 0.8875-1.3359 1.5171-1.9356 2.6952 0.9432-0.7847 1.5396-1.2699 2.2126-1.6712 0.0303 0.1036 0.0614 0.2079 0.0934 0.3128-0.5169 0.9141-0.6169 1.5881-0.3803 2.7504 0.4445-0.3847 0.7645-0.655 1.0488-0.8051 0.2087 0.5473 0.4365 1.0982 0.6811 1.6429 0.1643 0.1587 0.2962 0.331 0.4266 0.5012 0.3489 0.456 0.6871 0.8979 1.607 1.0282-0.0495 1.2597 0.2291 1.8117 0.5253 2.3987 0.1485 0.2942 0.3013 0.5972 0.4196 1.0023 0.2333 0.2726 0.4715 0.5264 0.7139 0.7583 1.4991 0.7503 1.5772 0.7132 2.9771 0.0495l0.1751-0.083c1.5697 0.7425 1.6827 0.7821 3.0139 0.119 0.3183-0.2959 0.6295-0.63 0.932-0.995 0.1103-0.3317 0.243-0.5947 0.3723-0.8511 0.2963-0.587 0.5748-1.139 0.5254-2.3987 0.9199-0.1303 1.2581-0.5721 1.607-1.0282 0.0874-0.1141 0.1755-0.229 0.2735-0.3403 0.2694-0.5902 0.5189-1.1886 0.7462-1.7831 0.2863 0.1494 0.608 0.421 1.0566 0.8094 0.2374-1.1661 0.136-1.8405-0.3853-2.7594 0.0316-0.1031 0.0623-0.2056 0.0922-0.3076 0.6755 0.4021 1.2727 0.8878 2.2189 1.675-0.6007-1.1802-1.0181-1.8101-1.9408-2.7001 0.0089-0.0359 0.0176-0.0715 0.0263-0.1071 0.2614-0.0912 0.4967-0.1198 0.839-0.1257-0.1619-0.3145-0.4114-0.5141-0.6641-0.6596 0.1631-0.81 0.2502-1.5275 0.2502-2.0992 0-0.3487-0.0324-0.6937-0.0947-1.0329-1.3357-1.4866-2.127-2.3226-3.0075-3.0539 0.0606 0.2015 0.1323 0.3827 0.2093 0.5773 0.0712 0.18 0.147 0.3715 0.2228 0.6015l-0.6099-0.3729-0.1348 1.019c-1.9515-2.6843-1.3099-5.5724 2.1826-9.6682-1.143 2.3699-1.6909 3.6745-2.0479 5.8407l-0.0011 0.0307c1.0739 1.1583 1.7688 1.9817 2.3666 2.8247 0.9718-1.2492 1.282-2.4454 1.8134-4.5703-0.0225 2.3411-0.2915 3.5683-1.2131 5.4723 0.1545 0.2463 0.309 0.5035 0.4694 0.7787 2.7719-5.3113 3.0042-11.661 2.7559-14.306zm-9.433 19.787 0.7959-1.4913 2.234-0.3976c-0.0975 1.579-1.1555 2.1871-3.0299 1.8889zm-6.0343-1.4913 0.796 1.4913c-1.8745 0.2982-2.9324-0.3099-3.03-1.8889zm4.9991 7.7723c0.3472 0.238 0.5616 0.5644 0.5616 0.9248 0 0.7275-0.8737 1.3172-1.9515 1.3172s-1.9516-0.5897-1.9516-1.3172c0-0.3791 0.2373-0.7208 0.617-0.9611 0.3848 0.1502 0.8762 0.2403 1.4116 0.2403 0.4906 0 0.9443-0.0757 1.3129-0.204z" fill="url(#paint1_linear_173_12496)"/>
  </g>
  <defs>
    <filter id="filter0_d_173_12496" x="0" y="0" width="56" height="56" color-interpolation-filters="sRGB" filterUnits="userSpaceOnUse">
      <feFlood flood-opacity="0" result="BackgroundImageFix"/>
      <feColorMatrix in="SourceAlpha" result="hardAlpha" values="0 0 0 0 0 0 0 0 0 0 0 0 0 0 0 0 0 0 127 0"/>
      <feOffset dy="4"/>
      <feGaussianBlur stdDeviation="2"/>
      <feComposite in2="hardAlpha" operator="out"/>
      <feColorMatrix values="0 0 0 0 0 0 0 0 0 0 0 0 0 0 0 0 0 0 0.25 0"/>
      <feBlend in2="BackgroundImageFix" result="effect1_dropShadow_173_12496"/>
      <feBlend in="SourceGraphic" in2="effect1_dropShadow_173_12496" result="shape"/>
    </filter>
    <linearGradient id="paint0_linear_173_12496" x1="4" x2="52" y1="24" y2="24" gradientUnits="userSpaceOnUse">
      <stop stop-color="#fff" offset="0"/>
      <stop stop-color="#0BF6CC" offset="1e-4"/>
      <stop stop-color="#073DC8" offset="1"/>
    </linearGradient>
    <linearGradient id="paint1_linear_173_12496" x1="16" x2="40" y1="36.5" y2="36.5" gradientUnits="userSpaceOnUse">
      <stop stop-color="#fff" offset="0"/>
      <stop stop-color="#0BF6CC" offset="1e-4"/>
      <stop stop-color="#073DC8" offset="1"/>
    </linearGradient>
    <clipPath id="clip0_173_12496">
      <rect transform="matrix(-1,0,0,1,52,0)" width="48" height="48" fill="#fff"/>
    </clipPath>
  </defs>
</svg>