<svg width="40" height="40" viewBox="0 0 40 40" fill="none" xmlns="http://www.w3.org/2000/svg">
<circle cx="20" cy="20" r="20" fill="#18315A"/>
<path d="M29.3775 24.6918H15.6466V16.8591H13.5317V25.7736C13.5317 26.0605 13.6431 26.3356 13.8414 26.5385C14.0397 26.7414 14.3086 26.8555 14.5891 26.8556H26.6196L24.1363 29.1406H10.8102V16.1777H24.5406C24.8018 16.1778 25.0537 16.0789 25.2477 15.8999L30.0844 11.4513C30.2435 11.305 30.3554 11.1128 30.4055 10.9C30.4555 10.6873 30.4413 10.464 30.3647 10.2597C30.2881 10.0554 30.1528 9.87963 29.9765 9.75563C29.8003 9.63163 29.5914 9.56523 29.3775 9.56519H14.5891C14.3086 9.56533 14.0398 9.67936 13.8415 9.88221C13.6432 10.0851 13.5318 10.3601 13.5317 10.647V13.3316H15.6466V11.7286H26.6196L24.1363 14.0141H15.6466V14.0128H13.5317V14.0141H9.75251C9.61364 14.0142 9.47614 14.0422 9.34786 14.0966C9.21958 14.151 9.10303 14.2307 9.00489 14.3312C8.90674 14.4317 8.82892 14.551 8.77586 14.6823C8.72281 14.8136 8.69556 14.9542 8.69568 15.0963V30.2225C8.69563 30.3645 8.72293 30.5052 8.77601 30.6364C8.8291 30.7676 8.90693 30.8869 9.00507 30.9873C9.1032 31.0878 9.21972 31.1675 9.34797 31.2219C9.47621 31.2762 9.61368 31.3043 9.75251 31.3043H24.5406C24.8016 31.3044 25.0535 31.2057 25.2477 31.0273L30.0844 26.5783C30.2435 26.432 30.3554 26.2398 30.4055 26.027C30.4555 25.8143 30.4413 25.591 30.3647 25.3867C30.2881 25.1824 30.1528 25.0066 29.9765 24.8826C29.8003 24.7586 29.5914 24.6922 29.3775 24.6922V24.6918Z" fill="#E91D3D"/>
</svg>
