<svg width="40" height="40" viewBox="0 0 40 40" fill="none" xmlns="http://www.w3.org/2000/svg">
<mask id="mask0_5_13" style="mask-type:alpha" maskUnits="userSpaceOnUse" x="0" y="0" width="40" height="40">
<path d="M20 40C31.0457 40 40 31.0457 40 20C40 8.95432 31.0457 0 20 0C8.95432 0 0 8.95432 0 20C0 31.0457 8.95432 40 20 40Z" fill="#D9D9D9"/>
</mask>
<g mask="url(#mask0_5_13)">
<path d="M40 0H0V40H40V0Z" fill="#E50571"/>
<path fill-rule="evenodd" clip-rule="evenodd" d="M20 6.7115C12.805 6.7115 6.97233 12.5442 6.97233 19.7391C6.97233 26.9342 12.805 32.7668 20 32.7668C27.1949 32.7668 33.0277 26.9342 33.0277 19.7391C33.0277 12.5442 27.1949 6.7115 20 6.7115ZM6.08694 19.7391C6.08694 12.0552 12.316 5.8261 20 5.8261C27.684 5.8261 33.913 12.0552 33.913 19.7391C33.913 27.4231 27.684 33.6522 20 33.6522C12.316 33.6522 6.08694 27.4231 6.08694 19.7391Z" fill="white"/>
<path fill-rule="evenodd" clip-rule="evenodd" d="M25.5742 16.3733L22.0117 16.2257L24.4311 13.6053L23.4578 12.6318L20.8342 15.0465L20.6922 11.4828H19.3153L19.1678 15.0453L16.5474 12.6258L15.5738 13.5994L17.9887 16.2227L14.4248 16.365V17.7417L17.9874 17.8893L15.5679 20.5097L16.5416 21.4834L19.1246 19.1055L19.2369 24.877L17.1763 25.0277V26.3101L19.268 26.4688L19.307 28.4735H20.6838L20.7243 26.4717L22.8378 26.3114V25.0292L20.7566 24.877L20.8732 19.1083L23.4517 21.4892L24.4254 20.5156L22.0106 17.8923L25.5742 17.7501V16.3733Z" fill="white"/>
</g>
<defs>
<rect width="40" height="40" fill="white"/>
</defs>
</svg>
